<?xml version="1.0" encoding="UTF-8"?>
<svg id="Warstwa_2" xmlns="http://www.w3.org/2000/svg" viewBox="0 0 85.64 64.63">
    <defs>
        <style>.cls-1{fill:#666;}</style>
    </defs>
    <g id="Warstwa_1-2">
        <g>
            <g>
                <path class="cls-1"
                      d="M15.15,31.32c-4.2,0-7.61-3.73-7.61-8.33s3.41-8.32,7.61-8.32,7.61,3.73,7.61,8.32-3.41,8.33-7.61,8.33Zm0-13.54c-2.48,0-4.5,2.34-4.5,5.21s2.02,5.21,4.5,5.21,4.49-2.34,4.49-5.21-2.02-5.21-4.49-5.21Z"/>
                <path class="cls-1"
                      d="M26.45,47.23H3.85c-2.12,0-3.85-1.73-3.85-3.85,0-3.88,.84-9.22,8.15-11.26,.83-.23,1.69,.25,1.92,1.08,.23,.83-.25,1.69-1.08,1.92-4.87,1.36-5.87,4.27-5.87,8.22,0,.44,.33,.77,.74,.77H26.45c.41,0,.74-.33,.74-.74,0-3.99-1-6.9-5.87-8.26-.83-.23-1.31-1.09-1.08-1.92,.23-.83,1.09-1.32,1.92-1.08,7.3,2.04,8.15,7.38,8.15,11.22,0,2.16-1.73,3.89-3.85,3.89Z"/>
            </g>
            <g>
                <path class="cls-1"
                      d="M70.49,31.32c-4.2,0-7.61-3.73-7.61-8.33s3.41-8.32,7.61-8.32,7.61,3.73,7.61,8.32-3.41,8.33-7.61,8.33Zm0-13.54c-2.48,0-4.5,2.34-4.5,5.21s2.02,5.21,4.5,5.21,4.5-2.34,4.5-5.21-2.02-5.21-4.5-5.21Z"/>
                <path class="cls-1"
                      d="M81.79,47.23h-22.6c-2.12,0-3.85-1.73-3.85-3.85,0-3.88,.84-9.22,8.15-11.26,.83-.23,1.69,.25,1.92,1.08,.23,.83-.25,1.69-1.08,1.92-4.87,1.36-5.87,4.27-5.87,8.22,0,.44,.33,.77,.74,.77h22.6c.41,0,.74-.33,.74-.74,0-3.99-1-6.9-5.87-8.26-.83-.23-1.31-1.09-1.08-1.92,.23-.83,1.09-1.32,1.92-1.08,7.3,2.04,8.15,7.38,8.15,11.22,0,2.16-1.73,3.89-3.85,3.89Z"/>
            </g>
            <g>
                <path class="cls-1"
                      d="M42.05,16.65c-4.2,0-7.61-3.73-7.61-8.33S37.86,0,42.05,0s7.61,3.73,7.61,8.33-3.41,8.33-7.61,8.33Zm0-13.54c-2.48,0-4.5,2.34-4.5,5.21s2.02,5.21,4.5,5.21,4.49-2.34,4.49-5.21-2.02-5.21-4.49-5.21Z"/>
                <path class="cls-1"
                      d="M55.65,30.23c-.86,0-1.56-.7-1.56-1.56,0-3.95-1-6.86-5.87-8.22-.83-.23-1.31-1.09-1.08-1.92,.23-.83,1.09-1.31,1.92-1.08,7.3,2.04,8.15,7.38,8.15,11.22,0,.86-.7,1.56-1.56,1.56Z"/>
                <path class="cls-1"
                      d="M28.46,30.23c-.86,0-1.56-.7-1.56-1.56,0-3.84,.84-9.18,8.15-11.22,.83-.23,1.69,.25,1.92,1.08,.23,.83-.25,1.69-1.08,1.92-4.87,1.36-5.87,4.27-5.87,8.22,0,.86-.7,1.56-1.56,1.56Z"/>
            </g>
            <g>
                <path class="cls-1"
                      d="M42.05,48.71c-4.2,0-7.61-3.73-7.61-8.33s3.41-8.32,7.61-8.32,7.61,3.73,7.61,8.32-3.41,8.33-7.61,8.33Zm0-13.54c-2.48,0-4.5,2.34-4.5,5.21s2.02,5.21,4.5,5.21,4.49-2.34,4.49-5.21-2.02-5.21-4.49-5.21Z"/>
                <path class="cls-1"
                      d="M53.35,64.63H30.75c-2.12,0-3.85-1.73-3.85-3.85,0-3.88,.84-9.22,8.15-11.26,.83-.23,1.69,.25,1.92,1.08,.23,.83-.25,1.69-1.08,1.92-4.87,1.36-5.87,4.27-5.87,8.22,0,.44,.33,.77,.74,.77h22.6c.41,0,.74-.33,.74-.74,0-3.99-1-6.9-5.87-8.26-.83-.23-1.31-1.09-1.08-1.92,.23-.83,1.09-1.32,1.92-1.08,7.3,2.04,8.15,7.38,8.15,11.22,0,2.16-1.73,3.89-3.85,3.89Z"/>
            </g>
        </g>
    </g>
</svg>