<?xml version="1.0" encoding="UTF-8"?><svg id="Warstwa_2" xmlns="http://www.w3.org/2000/svg" viewBox="0 0 126.3 87.04"><defs><style>.cls-1{fill:#3f3f3f;}</style></defs><g id="Warstwa_1-2"><path class="cls-1" d="M125.83,46.42c-.01-.08-.03-.16-.05-.24l-.06-.29s-.02-.06-.04-.09c-2.47-9.41-26.16-23.72-50.8-33.48C50.25,2.56,23.19-3.23,14.94,1.93c-.03,.01-.06,.02-.09,.04l-.25,.17c-.07,.05-.14,.09-.2,.14l-1.07,.74c-1.39,.95-2.4,2.28-2.94,3.83-.87,2.53-2.43,6.97-4.09,11.68C3.67,26.02,.93,33.79,.39,35.6c-1.97,6.63,1.86,20.57,49.63,39.49,22.25,8.82,39.22,12.79,50.44,11.8,8.84-.77,11.8-4.47,12.78-6.61,.61-1.33,2.73-6.11,5.2-11.66,2.67-6.01,5.7-12.82,7.19-16.13,.68-1.5,.84-3.15,.49-4.8l-.28-1.27Zm-29.95,5.33c-3.37-.65-6.9-1.43-10.51-2.4s-7.33-2.04-11.04-3.31c-3.72-1.25-7.47-2.61-11.19-4.07-3.68-1.47-7.38-3.06-10.94-4.7-3.58-1.62-7.01-3.4-10.31-5.16-3.3-1.76-6.41-3.6-9.3-5.44-2.9-1.83-5.55-3.69-7.91-5.53-4.72-3.64-8.24-7.29-9.88-10.32-.83-1.51-1.06-2.86-.98-3.73,.03-.22,.05-.4,.08-.57,.05-.16,.1-.29,.13-.39,.08-.21,.11-.31,.11-.31,0,0-.02,.11-.06,.33-.02,.1-.05,.24-.08,.39,0,.17,0,.35,0,.56,.04,.85,.47,2.06,1.4,3.42,1.88,2.71,5.6,5.89,10.45,9.14,2.42,1.62,5.14,3.28,8.06,4.95,2.92,1.67,6.07,3.31,9.35,4.97,3.28,1.66,6.75,3.23,10.27,4.82,3.54,1.59,7.13,3.08,10.81,4.52,3.65,1.46,7.33,2.84,10.98,4.11,2.08,.72,4.14,1.42,6.19,2.09l-4.75-8.12,9.4,9.57c.32,.09,.62,.18,.93,.27l-4.31-6.51,7.75,7.49c1.97,.55,3.91,1.07,5.79,1.52,3.27,.78,6.38,1.44,9.26,1.92,5.76,.95,10.64,1.18,13.88,.49,1.6-.35,2.74-.95,3.35-1.53,.15-.15,.27-.29,.39-.41,.09-.13,.16-.25,.22-.34,.12-.19,.18-.29,.18-.29,0,0-.05,.1-.13,.3-.05,.1-.1,.23-.17,.38-.1,.14-.21,.29-.33,.47-.54,.69-1.63,1.51-3.27,2.05-3.27,1.09-8.33,1.34-14.26,.75-2.97-.28-6.18-.73-9.54-1.39ZM12.07,11.35c-.09-.43-.03-.83-.03-1.15,.08-.33,.12-.6,.21-.81,.19-.41,.31-.6,.31-.6,0,0-.02,.23-.04,.66,0,.21,.05,.47,.07,.77,.11,.3,.13,.63,.31,1,.26,.73,.77,1.56,1.43,2.47,.65,.91,1.5,1.9,2.52,2.91,1.01,1.02,2.2,2.05,3.5,3.1,1.28,1.06,2.71,2.11,4.2,3.17,1.48,1.08,3.07,2.12,4.69,3.19,1.63,1.05,3.3,2.1,5,3.1,3.38,2.04,6.85,3.96,10.15,5.67,1.65,.85,3.25,1.67,4.77,2.44,1.53,.76,2.98,1.47,4.32,2.11,2.7,1.28,4.94,2.34,6.53,3.05,1.59,.72,2.5,1.13,2.5,1.13,0,0-.94-.33-2.58-.91-1.63-.61-3.98-1.46-6.74-2.61-1.39-.57-2.88-1.2-4.46-1.88-1.57-.69-3.23-1.42-4.92-2.23-3.33-1.58-6.83-3.37-10.27-5.28l-7.27,14.96,4.97-15.95-12.58,27.11,9.68-29.2s-.06-.04-.1-.05c-1.66-1.06-3.28-2.13-4.8-3.23-3.04-2.2-5.73-4.48-7.76-6.71-1.02-1.1-1.89-2.2-2.5-3.26-.61-1.07-1.01-2.08-1.1-2.95Z"/></g></svg>