<?xml version="1.0" encoding="UTF-8"?>
<svg id="Warstwa_2" xmlns="http://www.w3.org/2000/svg" viewBox="0 0 459.86 194.66">
    <defs>
        <style>.cls-1{fill:#036394;}.cls-2{fill:#8debff;}</style>
    </defs>
    <g id="Warstwa_1-2">
        <path class="cls-2"
              d="M163.33,77.55c-.27-1.48-.55-2.96-.85-4.44-.58-2.86-1.04-5.65-1.44-8.37-.4-2.72-.74-5.39-1.07-8-.14-1.08-.27-2.15-.41-3.2-.56-4.23-1.15-8.31-2.04-12.17-.22-.97-.46-1.92-.73-2.86-.79-2.82-1.78-5.51-3.07-8.06-.43-.85-.9-1.68-1.4-2.5-.76-1.22-1.59-2.41-2.53-3.55-.31-.38-.64-.76-.97-1.13-.67-.75-1.38-1.47-2.15-2.18-.76-.71-1.58-1.39-2.45-2.06-.87-.67-1.79-1.32-2.77-1.94-.98-.63-2.01-1.23-3.11-1.82-2.35-1.25-4.46-2.33-6.35-3.25-7.56-3.71-11.72-5.05-14.86-5.99-.26-.08-.52-.15-.77-.23-.31-.09-.6-.18-.88-.26-.56-.17-1.08-.33-1.58-.5-.25-.09-.5-.18-.75-.27-.99-.38-1.99-.86-3.26-1.6-3.95-2.3-6.73-3.16-10.25-3.16-1.36,0-2.81,.12-4.49,.27-1.72,.15-3.7,.32-6.24,.43-1.01,.04-2.12,.08-3.33,.09-.61,0-1.24,.01-1.9,.01-5.3,0-8.72-.29-11.47-.53-1.67-.14-3.12-.27-4.49-.27-3.52,0-6.3,.86-10.25,3.16-1.26,.74-2.26,1.21-3.26,1.6-.25,.1-.5,.19-.75,.27-.5,.17-1.02,.34-1.58,.5-.28,.08-.57,.17-.88,.26-.75,.22-1.54,.46-2.43,.74-3.55,1.13-8.51,2.99-17.27,7.53-.73,.38-1.49,.78-2.27,1.19-6.58,3.5-10.96,7.79-13.98,12.68-.5,.82-.97,1.65-1.4,2.5-.86,1.7-1.59,3.46-2.21,5.28-.93,2.73-1.63,5.6-2.21,8.57-.76,3.97-1.29,8.13-1.84,12.44-.17,1.31-.33,2.63-.51,3.96-.18,1.33-.36,2.68-.56,4.04-.4,2.72-.86,5.51-1.44,8.37-.6,2.95-1.13,5.92-1.61,8.9-.27,1.69-.52,3.37-.75,5.06C-.16,106.19-.5,124.85,.55,136.6c.31,3.51,.39,7.02,.39,10.26,0,1.94-.03,3.79-.06,5.49-.01,.88-.03,1.71-.04,2.5,0,.39,0,.78-.01,1.15,0,.74,0,1.44,0,2.1,.02,1.02,.06,1.94,.13,2.78,.04,.48,.09,.93,.16,1.35,.01,.07,.02,.14,.04,.22,.07,.39,.15,.76,.24,1.12,.15,.57,.34,1.1,.58,1.58,.08,.17,.17,.33,.26,.49,.06,.1,.12,.2,.18,.3,.03,.04,.06,.09,.08,.13,.03,.04,.06,.09,.09,.14,.05,.07,.1,.14,.15,.21,.43,.58,1.14,1.29,2.64,1.93,.39,.17,.83,.33,1.34,.48,.17,.05,.34,.1,.53,.15,2.37,.64,5.97,1.1,11.52,1.1h0c2.12,0,4.18-.08,6.03-.24,.37-.03,.73-.07,1.08-.11,.7-.08,1.37-.16,1.99-.26,.72-.11,1.45-.25,2.16-.43,1.93-.48,3.73-1.28,4.88-2.75,.12-.15,.25-.3,.36-.47,0,.21,0,.42,0,.63,0,.21,0,.42,0,.63,.04,3.15,.08,5.47,.14,7.22,.05,1.42,.13,2.48,.25,3.3,.06,.41,.13,.76,.22,1.07,.21,.77,.51,1.3,.94,1.84,1.85,2.31,4.77,4.35,8.34,6.11,1.79,.88,3.74,1.69,5.8,2.43,1.39,.5,2.84,.96,4.32,1.4,.71,.21,1.43,.41,2.15,.61,1.12,.3,2.25,.58,3.39,.84,.57,.13,1.14,.26,1.71,.38,1.15,.24,2.3,.47,3.44,.68,2.87,.52,5.73,.92,8.48,1.2,3.29,.34,6.43,.52,9.22,.52h0c7.53,0,17.94-1.22,27.18-3.76,.54-.15,1.08-.3,1.62-.46,3.74-1.11,7.23-2.44,10.2-4.01,2.97-1.56,5.41-3.36,7.03-5.39,.17-.22,.32-.43,.46-.66,.6-1.03,.82-2.35,.92-5.54,.06-1.77,.08-4.12,.11-7.31,0-.63,.01-1.27,.02-1.93,0-.66,.01-1.32,.02-2,.09,.37,.2,.73,.32,1.07,1.12,3.3,4.64,4.27,7.93,4.8,.31,.05,.63,.1,.96,.14,1.33,.17,2.83,.3,4.42,.38,1.19,.06,2.45,.09,3.72,.09,3.84,0,6.75-.22,8.96-.57,5.65-.89,6.77-2.6,7.39-3.57,1.29-1.99,1.58-4.67,1.59-8.86h0c0-1.4-.02-2.97-.05-4.73-.03-1.69-.06-3.54-.06-5.49,0-1.3,.01-2.64,.05-4,.05-2.05,.16-4.16,.34-6.26,.24-2.74,.41-5.85,.49-9.26,.11-4.55,.06-9.61-.16-15.01-.06-1.35-.13-2.72-.21-4.11-.48-8.32-1.39-17.28-2.83-26.21-.24-1.49-.49-2.98-.76-4.46Zm-14.75,87.83c-2.64,0-5.28-.14-7.46-.42-.62-.08-1.21-.17-1.75-.28-.27-.05-.52-.11-.77-.17-1.46-.35-2.43-.8-2.62-1.36-.12-.37-.23-.77-.32-1.2-.09-.43-.17-.9-.24-1.39-.14-.99-.24-2.09-.35-3.29-.05-.6-.11-1.22-.18-1.86-.19-1.92-.46-4.01-.94-6.18-.11-.51-.2-1-.28-1.47-.15-.95-.24-1.83-.29-2.67-.02-.42-.04-.84-.04-1.24,.1-.97,.27-2.01,.51-3.05,.44-1.88,1.12-3.73,1.77-5.06,.16-.33,.31-.64,.45-.9,.07-.13,.14-.26,.2-.37,.31-.57,.51-.9,.51-.9,0,0-.25,.29-.65,.81-.08,.1-.16,.22-.26,.34-.18,.24-.38,.52-.59,.83-.44,.63-.92,1.41-1.39,2.27-.16,.29-.31,.58-.46,.88,0-.54,0-1.09-.02-1.67-.11-2.69-.22-4.33-.37-5.72-.02-.17-.04-.35-.06-.51-.06-.51-.12-.99-.18-1.5-.02-.17-.04-.34-.07-.52-.07-.53-.14-1.1-.22-1.76,2.07,.65,5.51,1.42,9.84,1.21,4.06-.2,6.85-.45,9.16-.77,.26-.04,.51-.07,.76-.11,.49-.08,.97-.15,1.43-.24,.47-.08,.92-.17,1.38-.26,.46-.09,.91-.19,1.37-.29,.53-.11,1.07-.24,1.61-.37,1.09-.26,2.17-.55,3.16-.85,.49-.15,.96-.31,1.39-.47-.04,3.29-.15,6.27-.32,8.87-.06,.86-.12,1.69-.19,2.46-.1,1.12-.18,2.23-.24,3.33-.09,1.65-.14,3.27-.16,4.84-.08,5.77,.18,10.91,.06,14.48-.54,.2-1.18,.43-1.93,.66-1.11,.37-2.42,.75-3.85,1.09-.72,.17-1.45,.34-2.21,.49-.76,.15-1.53,.29-2.31,.42-3.12,.49-6.3,.68-8.7,.65-1.2,0-2.2-.04-2.9-.09-.53-.03-.89-.05-1.03-.06-.05,0-.07,0-.07,0,0,0,.22,.05,.62,.14,.13,.03,.29,.07,.46,.11,.34,.08,.76,.17,1.24,.27,.48,.1,1.03,.2,1.63,.3,1.49,.26,3.32,.5,5.28,.64,.78,.06,1.59,.1,2.41,.13,.41,.01,.82,.02,1.23,.03,3.28,.03,6.58-.25,9.04-.63,.19-.03,.37-.06,.56-.09-.07,.18-.15,.35-.24,.48-.16,.25-.49,.47-.97,.67-.32,.13-.69,.26-1.12,.37-.43,.11-.92,.22-1.44,.31-2.37,.42-5.62,.64-8.88,.64Zm-22.12,4.93c-.39,.22-.85,.47-1.4,.74-.56,.3-1.2,.62-1.91,.95-.35,.17-.72,.35-1.11,.52-.38,.18-.78,.35-1.2,.53-.83,.35-1.71,.71-2.62,1.07-1.84,.7-3.84,1.37-5.87,1.95-2.03,.56-4.1,1.05-6.05,1.42-.49,.09-.97,.17-1.44,.25-1.42,.24-2.76,.42-3.95,.54-.8,.09-1.53,.16-2.18,.2-.65,.05-1.22,.09-1.69,.11-.94,.04-1.47,.07-1.47,.07,0,0,.03,0,.1,0,.19,.01,.67,.05,1.37,.11,.23,.02,.49,.04,.78,.06,.28,.02,.59,.03,.92,.05,.66,.04,1.39,.07,2.2,.07,1.62,.04,3.5-.01,5.53-.12,.95-.06,1.93-.15,2.92-.25-.88,.17-1.75,.33-2.6,.48-10.25,1.8-27.54,.64-47.13-.53-1.96-.12-3.76-.31-5.42-.56-7.16-1.1-11.55-3.33-14.17-5.34-.09-3.35-.11-7.97-.22-12.58-.02-.66-.03-1.32-.05-1.97,.17,.21,.36,.42,.55,.64,2.56,2.83,7.29,6.25,15.71,7.66,1.3,.22,2.68,.39,4.16,.5,19.14,1.46,36.03,2.93,46.04,.67,7.35-1.66,15.78-4.26,20.33-7.74-.02,.92-.03,1.84-.05,2.75-.04,2.74-.05,5.41-.08,7.75ZM83.49,3.71c1.81-.06,3.62-.24,5.33-.4,1.28-.12,2.51-.19,3.63-.22,.37-.01,.73-.02,1.08-.02,1.38-.02,2.53,.11,3.33,.21,.2,.03,.38,.06,.53,.08s.28,.05,.39,.07c.21,.04,.32,.06,.32,.06,0,0-.03,0-.08,0-.17-.01-.57-.03-1.17-.04-.8-.03-1.94,0-3.3,.1-.68,.04-1.41,.12-2.19,.21s-1.6,.19-2.45,.29c-.85,.09-1.73,.2-2.63,.29-.9,.09-1.82,.17-2.74,.22-1.85,.07-3.69,.01-5.41-.09-.86-.05-1.69-.13-2.47-.22-.39-.04-.77-.09-1.14-.13-.37-.05-.72-.09-1.07-.13-.34-.04-.67-.09-.98-.13-.62-.09-1.17-.18-1.65-.26-.24-.04-.46-.08-.66-.11-.79-.14-1.24-.22-1.24-.22,0,0,.26,.01,.72,.03,.16,0,.34,.02,.54,.02,.8,.05,1.94,.11,3.31,.19,1.03,.07,2.18,.12,3.41,.17,.41,.02,.83,.03,1.26,.05,1.71,.06,3.52,.08,5.33-.02Zm-19.29,.11c-.23,.29-.4,.62-.54,.97-.13,.34-.22,.7-.28,1.06-.12,.72-.11,1.45-.02,2.17,.05,.36,.13,.72,.2,1.07l.32,1.04,.4,1.02,.48,.98c.33,.65,.68,1.27,1.08,1.89l.62,.93,.15,.23,.16,.21,.33,.44,.66,.87,.71,.84c.46,.57,.98,1.09,1.47,1.63,.49,.54,1.04,1.03,1.56,1.55l1.62,1.5c1.11,.97,2.23,1.92,3.4,2.82,1.15,.91,2.34,1.79,3.54,2.64,1.06,.75,2.15,1.47,3.23,2.15,1.09-.68,2.17-1.4,3.23-2.15,1.2-.85,2.38-1.73,3.54-2.64,1.17-.9,2.29-1.85,3.4-2.82l1.62-1.5c.52-.52,1.07-1.01,1.56-1.55,.5-.54,1.02-1.06,1.47-1.62l.7-.83,.68-.89c.47-.59,.84-1.17,1.25-1.8,.39-.62,.75-1.25,1.08-1.9l.48-.98,.4-1.02,.32-1.04c.07-.36,.16-.71,.2-1.07,.09-.72,.1-1.45-.02-2.17-.09-.54-.25-1.08-.52-1.56-.09-.16-.19-.32-.31-.46,.53,.53,.86,1.24,1.07,1.97,.09,.37,.16,.74,.19,1.12,.04,.38,.04,.76,.03,1.14-.02,.38-.08,.76-.12,1.14l-.24,1.12-.33,1.1-.41,1.07c-.15,.35-.3,.7-.47,1.04-.17,.34-.34,.68-.52,1.01l-.57,.99c-.18,.34-.42,.66-.62,.96l-.62,.93-.7,.91c-.23,.31-.47,.61-.72,.89-.24,.29-.49,.57-.74,.86-.49,.58-1.02,1.11-1.53,1.67-.53,.54-1.07,1.06-1.61,1.58-1.11,1.02-2.23,2.02-3.4,2.97-1.16,.96-2.37,1.86-3.58,2.74-1.22,.88-2.45,1.72-3.75,2.54l-.44,.28-.44-.28c-.65-.41-1.28-.82-1.9-1.24-.62-.42-1.24-.85-1.85-1.29-1.22-.89-2.42-1.78-3.58-2.74-1.17-.95-2.29-1.95-3.4-2.97-.54-.53-1.09-1.04-1.62-1.58-.26-.28-.52-.55-.78-.83-.26-.27-.51-.55-.76-.84-.49-.58-1-1.14-1.45-1.75l-.69-.9-.64-.95-.32-.47-.16-.25-.14-.24-.56-.97c-.36-.66-.71-1.36-1-2.06l-.41-1.07-.33-1.1-.24-1.12c-.04-.38-.1-.76-.12-1.14-.03-.76,.03-1.53,.22-2.27,.05-.18,.11-.36,.18-.54,.14-.35,.31-.69,.53-1,.11-.15,.23-.3,.36-.43ZM12.49,53.94c.32-2.48,.66-4.87,1.06-7.17,.2-1.15,.42-2.28,.66-3.38,.11,.29,.22,.59,.33,.89,.6,1.51,1.31,3.08,2.1,4.6,1.2,2.28,2.59,4.43,3.89,6.19,.43,.59,.86,1.13,1.26,1.61,.4,.49,.78,.94,1.11,1.32,.34,.39,.64,.71,.9,.98,.51,.53,.8,.84,.8,.84,0,0-.02-.02-.04-.06-.06-.08-.17-.25-.33-.48-.08-.12-.17-.25-.28-.4-.31-.45-.71-1.06-1.15-1.79-.15-.24-.3-.5-.46-.77-.16-.27-.32-.55-.48-.84s-.32-.6-.49-.92c-.33-.63-.66-1.31-.99-2.01-.64-1.41-1.25-2.94-1.78-4.49-.39-1.17-.73-2.35-1.01-3.49s-.51-2.25-.68-3.28c-.12-.69-.21-1.33-.28-1.94-.15-1.2-.22-2.2-.26-2.9,0-.16-.01-.3-.02-.43,2.57-6.73,6.86-12.33,14.89-16.6,5.06-2.7,8.91-4.53,11.95-5.84,2.74-1.18,4.83-1.92,6.56-2.48,.77-.25,1.47-.46,2.12-.65,.33-.1,.64-.19,.95-.28,.31-.09,.61-.18,.9-.27,.74-.23,1.45-.47,2.19-.75,.02,.52,.07,1.1,.14,1.73,.08,.63,.19,1.32,.35,2.05,.1,.47,.22,.95,.36,1.44,.14,.49,.3,1,.47,1.51,.35,1.03,.78,2.08,1.3,3.14,.77,1.59,1.71,3.17,2.78,4.69,.36,.51,.73,1,1.11,1.49,1.53,1.95,3.24,3.72,4.92,5.29,1.26,1.18,2.5,2.24,3.64,3.18,.38,.31,.75,.62,1.1,.9,.36,.29,.7,.56,1.02,.82,.33,.26,.64,.5,.93,.73,.58,.46,1.1,.85,1.52,1.18,.42,.32,.76,.58,.98,.75,.23,.17,.35,.27,.35,.27,0,0-.03-.03-.08-.07-.16-.15-.57-.5-1.17-1.03-.8-.7-1.94-1.71-3.29-2.94-.34-.31-.68-.63-1.04-.97-.36-.34-.72-.69-1.1-1.05-2.24-2.18-4.72-4.84-6.76-7.81-1.35-1.97-2.5-4.07-3.33-6.13-.42-1.03-.75-2.04-1.02-3.01-.26-.97-.46-1.9-.59-2.76-.03-.23-.05-.44-.08-.66,.41,1.22,.99,2.67,1.84,4.37s1.95,3.64,3.38,5.85c.45,.7,.93,1.37,1.42,2.03,.24,.33,.49,.65,.75,.96,1.01,1.26,2.07,2.42,3.15,3.49,1.35,1.34,2.74,2.54,4.08,3.6,.81,.64,1.61,1.22,2.38,1.76,4.36,3.04,7.85,4.5,7.85,4.5,0,0,.59-.25,1.59-.75,.43-.21,.93-.48,1.5-.79,1.51-.83,3.44-1.99,5.54-3.51,1.05-.76,2.14-1.61,3.23-2.54,.55-.47,1.09-.96,1.64-1.47,.54-.51,1.09-1.05,1.62-1.61,.27-.28,.54-.57,.8-.86,1.32-1.46,2.58-3.06,3.71-4.8,.31-.47,.6-.94,.88-1.39,1.95-3.15,3.18-5.71,3.95-7.74-.12,.57-.26,1.16-.42,1.77-.16,.61-.34,1.23-.53,1.87-.15,.47-.32,.95-.5,1.43-.18,.48-.37,.96-.56,1.45-.4,.97-.84,1.94-1.32,2.89-.25,.47-.5,.94-.77,1.4-.53,.92-1.09,1.82-1.67,2.68-.29,.43-.58,.85-.88,1.25-.92,1.2-1.83,2.31-2.72,3.27-.3,.32-.59,.62-.88,.9-.56,.59-1.11,1.09-1.61,1.52-.49,.44-.92,.82-1.3,1.1-.75,.59-1.17,.92-1.17,.92,0,0,.45-.3,1.24-.83,.4-.26,.86-.6,1.39-1.01,.27-.2,.55-.41,.84-.65,.29-.23,.59-.49,.89-.76,1.26-1.05,2.6-2.42,3.96-3.96,.33-.39,.66-.8,.99-1.21,.33-.42,.65-.85,.97-1.28,.64-.88,1.25-1.79,1.83-2.73,.28-.47,.56-.95,.82-1.44,.26-.48,.52-.97,.76-1.45,.49-.97,.93-1.95,1.32-2.91,.37-.97,.71-1.92,1.01-2.83,.29-.91,.54-1.78,.72-2.6,.21-.81,.36-1.56,.47-2.24,.04-.24,.08-.45,.12-.66,.95,.4,1.84,.71,2.77,1,.31,.1,.62,.19,.95,.29,.8,.24,1.66,.49,2.63,.79,.39,.12,.79,.25,1.22,.39,.43,.14,.87,.3,1.35,.47,2.13,.76,4.77,1.83,8.26,3.48,.39,.18,.79,.37,1.2,.57,.82,.4,1.68,.82,2.59,1.28,.91,.46,1.87,.95,2.88,1.48,.5,.26,1.02,.54,1.55,.82,.99,.53,1.92,1.07,2.8,1.64,2.19,1.41,4.06,2.95,5.65,4.61,.32,.33,.63,.67,.92,1.01,1.19,1.36,2.21,2.8,3.1,4.31,.89,1.51,1.64,3.09,2.29,4.74-.02,.34-.04,.74-.07,1.17-.03,.44-.08,.92-.14,1.44-.18,1.84-.55,4.14-1.1,6.53-.19,.8-.4,1.6-.62,2.41-.11,.4-.23,.8-.36,1.2-.25,.79-.52,1.58-.79,2.34-.69,1.9-1.45,3.66-2.15,5.08-.14,.29-.27,.56-.4,.82-.39,.78-.74,1.42-1.02,1.91-.18,.32-.33,.58-.43,.75-.1,.17-.15,.27-.15,.27,0,0,.15-.19,.42-.53,.09-.11,.19-.24,.31-.39,.46-.58,1.11-1.43,1.84-2.49,.19-.26,.38-.54,.57-.83,.39-.58,.79-1.2,1.19-1.86,.2-.33,.4-.67,.61-1.02,.81-1.4,1.62-2.93,2.35-4.5,.4-.86,.78-1.74,1.12-2.61,.35-.87,.67-1.73,.96-2.57,.25,1.12,.48,2.26,.69,3.43,.21,1.17,.4,2.36,.59,3.57,.54,3.64,.99,7.49,1.53,11.53,.18,1.35,.37,2.71,.57,4.1,.41,2.78,.89,5.64,1.48,8.57,.42,2.05,.8,4.1,1.15,6.15,1.06,6.14,1.85,12.22,2.42,18.07-.94,.35-2.08,.68-3.29,.99-.6,.15-1.22,.3-1.84,.44-.62,.14-1.23,.27-1.84,.4-1.01,.21-2.21,.38-3.55,.54-1.01,.11-2.1,.22-3.27,.31-.39,.03-.78,.06-1.19,.09-1.21,.09-2.49,.17-3.82,.25-.44,.03-.89,.05-1.35,.08-.91,.05-1.85,.1-2.8,.15-.95,.05-1.92,.1-2.91,.15-4.3,.22-6.75-.31-8.09-.84-.02-.2-.04-.41-.05-.62,.1-.16,.3-.46,.59-.89,.09-.14,.2-.3,.31-.47,.32-.47,.68-1.05,1.09-1.72,.42-.67,.87-1.43,1.33-2.28,.97-1.68,1.97-3.7,2.98-5.89,.49-1.1,.97-2.25,1.43-3.43,.46-1.18,.9-2.38,1.3-3.6,.79-2.44,1.47-4.91,1.99-7.25,.49-2.35,.89-4.54,1.1-6.44,.13-.95,.22-1.82,.28-2.59,.04-.39,.07-.75,.1-1.08,.03-.33,.05-.64,.06-.92,.06-1.11,.09-1.74,.09-1.74,0,0-.04,.35-.12,1-.02,.21-.05,.46-.09,.74-.03,.28-.07,.58-.11,.91-.05,.33-.1,.69-.16,1.07-.06,.38-.12,.79-.19,1.22-.07,.43-.15,.88-.25,1.34-.33,1.87-.86,4.02-1.49,6.31-.33,1.14-.7,2.3-1.1,3.48-.4,1.17-.84,2.36-1.3,3.53-.95,2.33-2.01,4.62-3.1,6.7-.56,1.04-1.11,2.03-1.65,2.96-.54,.93-1.08,1.8-1.6,2.58-.5,.79-.99,1.5-1.43,2.12-.09,.13-.17,.24-.26,.37-.07-1.24-.15-2.46-.23-3.64-.24-3.31-.46-6.39-.6-9.04-.14-2.64-.19-4.85-.16-6.39,0-.39,.02-.73,.03-1.03,0-.15,.01-.29,.02-.42,0-.13,.01-.24,.02-.35,0-.1,.01-.19,.02-.27,.02-.24,.02-.36,.02-.36,0,0-.02,.12-.06,.36-.01,.08-.02,.17-.04,.27-.03,.21-.07,.46-.1,.76-.04,.3-.07,.64-.12,1.03-.15,1.54-.29,3.76-.37,6.41-.02,.66-.04,1.36-.06,2.07-.05,2.15-.07,4.51-.1,7-.02,1.66-.05,3.37-.11,5.09-.02,.34-.03,.7-.05,1.06-.02,.02-.04,.05-.04,.05l.04,.03c-.05,1.38-.07,2.82-.03,4.22,.13,3.48,.52,6.9,.96,10.1-.03-.04-.05-.07-.05-.07,0,0,.67,10.61,.95,20.93,.01,.43,.02,.86,.03,1.29,.07,2.99,.1,5.93,.07,8.52-.34,.27-.73,.56-1.17,.88-.45,.33-.94,.68-1.47,1.04-1.06,.71-2.26,1.46-3.54,2.19-.32,.18-.65,.36-.98,.53-.33,.18-.66,.35-1,.52-2.69,1.35-5.53,2.43-7.71,3.09-1.09,.34-2.02,.58-2.67,.74-.16,.04-.31,.07-.44,.1-.38,.09-.59,.14-.59,.14,0,0,.1,0,.28-.02,.18-.01,.44-.03,.78-.05,.34-.02,.74-.05,1.21-.1,.23-.02,.48-.05,.74-.08,.26-.03,.54-.06,.82-.1,.56-.07,1.17-.15,1.81-.26,1.92-.31,4.13-.8,6.33-1.44-1.04,.42-2.12,.82-3.22,1.2-3.32,1.13-6.88,2.08-10.22,2.84-10.01,2.26-26.9,.8-46.04-.67-.8-.06-1.57-.14-2.31-.23-1.49-.19-2.87-.43-4.16-.73-.64-.15-1.26-.31-1.86-.48-7.14-2.05-10.86-5.63-12.7-8.17,0-5.04,.34-11.55,.75-17.35,.08-1.16,.16-2.29,.24-3.38,.17-2.17,.33-4.17,.47-5.84,.3-1.99,.62-4.13,.94-6.41,.49-3.58,.9-7.47,.85-11.39,0-.2-.01-.4-.02-.6h.02s0-.03-.02-.06c-.02-.76-.04-1.5-.07-2.21-.02-.95-.04-1.89-.06-2.82-.02-1.88-.04-3.73-.06-5.52-.03-3.58-.07-6.93-.14-9.8-.02-.72-.04-1.4-.07-2.06-.02-.65-.05-1.27-.08-1.86-.06-1.16-.12-2.18-.19-3.02-.06-.63-.11-1.15-.16-1.56-.02-.14-.03-.26-.05-.37-.05-.33-.08-.55-.09-.64,0-.03,0-.04,0-.04,0,0,0,.06,.01,.18,0,.12,.02,.29,.03,.51,.02,.22,.03,.5,.04,.82s.02,.7,.02,1.11c0,1.67-.05,4.05-.2,6.91-.14,2.86-.36,6.19-.61,9.77-.1,1.58-.22,3.22-.33,4.87-.06-.16-.1-.31-.16-.48-.16-.47-.32-.97-.48-1.48-1.15-3.58-2.42-8.07-3.48-12.61-.91-3.89-1.67-7.83-2.22-11.22-.18-1.13-.35-2.21-.48-3.2-.14-.99-.27-1.9-.37-2.71-.05-.4-.1-.78-.14-1.13-.04-.35-.08-.67-.11-.96-.03-.29-.06-.55-.09-.78-.02-.23-.04-.42-.06-.57-.04-.31-.05-.48-.05-.48,0,0,.03,.67,.09,1.84s.16,2.84,.33,4.84c.12,1.5,.28,3.19,.49,4.99,.27,2.4,.62,5.01,1.04,7.65,.1,.66,.21,1.32,.33,1.98,.46,2.65,.98,5.28,1.53,7.75,.27,1.23,.55,2.42,.82,3.54,.27,1.12,.54,2.18,.8,3.16,.13,.49,.25,.96,.37,1.4,.36,1.33,.69,2.45,.94,3.3,.34,1.13,.53,1.78,.53,1.78h.02s0,.08-.01,.12c-1.3,.55-3.77,1.14-8.28,.91-1.97-.1-3.88-.2-5.71-.3-.91-.05-1.8-.1-2.67-.16-1.3-.08-2.53-.17-3.7-.26-.39-.03-.77-.06-1.14-.1-.74-.07-1.45-.14-2.13-.21-.67-.08-1.31-.16-1.9-.25-.59-.09-1.14-.19-1.65-.29-1.2-.25-2.47-.53-3.68-.84-.3-.08-.6-.16-.89-.24-.87-.24-1.69-.49-2.4-.75,.38-3.89,.86-7.9,1.45-11.95,.3-2.03,.62-4.07,.97-6.11,.36-2.05,.74-4.1,1.15-6.15,.88-4.31,1.49-8.46,2.02-12.43,.35-2.64,.66-5.21,.99-7.68Zm21.48,99.06c-.32,1.75-.61,3.16-.91,4.4-.06,.25-.12,.49-.18,.72-.12,.47-.23,.91-.35,1.33-.88,.11-2.1,.27-3.53,.46-2.39,.31-5.38,.7-8.36,1.09-3.36,.46-6.64,.88-9.12,.58-1.23-.13-2.25-.41-2.93-.66-.17-.06-.33-.12-.46-.18-.13-.06-.24-.11-.33-.15-.18-.08-.28-.12-.28-.12,0,0,.09,.06,.26,.17,.16,.11,.41,.27,.74,.45,.65,.36,1.63,.81,2.88,1.15,1.25,.36,2.75,.56,4.36,.69,.4,.03,.81,.06,1.22,.08,.83,.04,1.67,.07,2.51,.09,.42,.01,.84,.02,1.26,.03,.49,.01,.99,.03,1.47,.04,.98,.03,1.95,.05,2.89,.08,.47,.01,.93,.03,1.38,.04,1.8,.05,3.43,.09,4.73,.13-.54,.66-2.23,1.16-4.5,1.48-.57,.08-1.17,.15-1.8,.22-1.89,.18-4.02,.28-6.15,.28s-4.34-.1-6.25-.28c-3.18-.31-5.63-.89-6.17-1.71-1.75-2.7,0-14.54-1.13-27.2-.04-.39-.07-.79-.1-1.2-.22-2.88-.37-6.29-.41-10.13,1.28,.48,2.92,.94,4.55,1.33,.54,.13,1.09,.25,1.61,.37,.46,.1,.92,.2,1.37,.29,1.14,.23,2.28,.43,3.57,.61,.52,.07,1.05,.14,1.62,.2,.28,.03,.58,.06,.88,.09,1.81,.18,3.95,.34,6.66,.47,4.54,.22,8.12-.64,10.14-1.3-.05,.31-.09,.61-.12,.88-.06,.37-.1,.71-.13,1.01-.32,.72-.7,1.61-1.09,2.59-.19,.49-.39,1.01-.58,1.54-.19,.53-.38,1.07-.56,1.62-.41,1.2-.76,2.41-1.05,3.51-.64,2.41-.99,4.28-.99,4.28,0,0,.19-.53,.52-1.38,.5-1.27,1.34-3.26,2.34-5.25,.11-.22,.23-.44,.34-.66,.21-.41,.43-.82,.65-1.22,.02,.29,.05,.58,.09,.91,.27,2.37,.43,4.59,.46,6.79,0,.73,0,1.47-.02,2.2-.08,2.94-.41,5.92-1.02,9.26ZM4.96,111.51c.07-1.46,.15-2.95,.24-4.46,.47,.16,.98,.32,1.51,.48,1.07,.31,2.26,.61,3.44,.87,.59,.13,1.18,.26,1.75,.38,.51,.1,1,.2,1.5,.3,3.49,.67,7,1.12,13.89,1.48,5.34,.28,9.43-.71,11.52-1.37-.14,.69-.28,1.37-.42,2.04-.54,2.48-1.1,4.84-1.59,7.03-1.18,.57-3.46,1.2-7.65,1-6.32-.31-12-.55-15.8-1.15-.54-.08-1.05-.18-1.51-.28-.63-.13-1.27-.28-1.92-.44-.97-.24-1.93-.49-2.81-.76-.88-.27-1.68-.56-2.32-.85,.04-1.39,.09-2.82,.16-4.28Zm157.19-4.46c.19,3.03,.32,5.95,.4,8.74-.21,.1-.44,.2-.69,.29-.98,.38-2.2,.75-3.47,1.08-.95,.25-1.94,.48-2.87,.68-3.25,.7-8.54,1-14.65,1.29-.87,.04-1.76,.08-2.67,.13-3.95,.19-6.2-.36-7.44-.9-.64-2.81-1.38-5.89-2.02-9.11,2.14,.66,6.13,1.57,11.31,1.3,7.88-.41,11.35-.95,15.4-1.78,1.15-.24,2.36-.5,3.51-.8,.58-.15,1.14-.3,1.68-.45,.54-.16,1.04-.32,1.51-.48Z"/>
        <path class="cls-1"
              d="M85.34,86.26c-2.46,3.05-4.82,5.3-7.08,6.74-2.27,1.44-4.57,2.16-6.92,2.16-1.97,0-3.8-.41-5.49-1.23-1.69-.82-3.14-1.95-4.34-3.39-1.2-1.44-2.14-3.14-2.83-5.09-.68-1.95-1.02-4.08-1.02-6.4s.34-4.38,1.02-6.36c.68-1.98,1.62-3.69,2.83-5.13,1.2-1.44,2.65-2.57,4.34-3.39,1.69-.82,3.52-1.23,5.49-1.23,2.4,0,4.82,.71,7.25,2.12,2.43,1.41,4.85,3.76,7.25,7.04,2.46-3.05,4.82-5.3,7.08-6.74,2.27-1.44,4.57-2.16,6.92-2.16,1.97,0,3.79,.41,5.49,1.23,1.69,.82,3.14,1.95,4.34,3.39,1.2,1.44,2.14,3.15,2.83,5.13,.68,1.98,1.02,4.1,1.02,6.36s-.34,4.38-1.02,6.36c-.68,1.98-1.62,3.69-2.83,5.13-1.2,1.44-2.65,2.57-4.34,3.39-1.69,.82-3.52,1.23-5.49,1.23-2.4,0-4.82-.71-7.25-2.12-2.43-1.41-4.85-3.76-7.25-7.04Zm-5.65-7.29c-1.75-2.37-3.19-3.94-4.34-4.71-1.15-.76-2.27-1.15-3.36-1.15-1.37,0-2.47,.54-3.32,1.61-.85,1.07-1.27,2.52-1.27,4.32s.42,3.25,1.27,4.32c.85,1.07,1.92,1.61,3.24,1.61,.55,0,1.09-.08,1.64-.25,.55-.17,1.12-.47,1.72-.89,.6-.42,1.26-1.03,1.97-1.82,.71-.79,1.53-1.81,2.46-3.05Zm11.79,.42c1.75,2.37,3.19,3.94,4.34,4.71,1.15,.76,2.27,1.15,3.36,1.15,1.36,0,2.47-.54,3.32-1.61,.85-1.07,1.27-2.51,1.27-4.32s-.42-3.25-1.27-4.32c-.85-1.07-1.92-1.61-3.24-1.61-.6,0-1.16,.08-1.68,.25-.52,.17-1.08,.47-1.68,.89-.6,.42-1.26,1.03-1.97,1.82-.71,.79-1.53,1.81-2.46,3.05Z"/>
        <path class="cls-1"
              d="M425.55,154.52c-1.85,1.43-3.64,2.87-5.37,4.27-8.85,7.13-16.49,13.28-23.96,11.85l-50.79-9.67,84.7-16.13c1.67-.32,2.77-1.93,2.45-3.6l-.66-3.45c-.32-1.67-1.93-2.77-3.6-2.45l-108.73,20.71-108.73-20.71c-1.67-.32-3.28,.78-3.6,2.45l-.66,3.45c-.32,1.67,.78,3.28,2.45,3.6l84.7,16.13-50.79,9.67c-7.48,1.42-15.12-4.73-23.97-11.85-1.73-1.39-3.52-2.83-5.37-4.27-14.48-11.23-21.09-16.35-27.26-8.91-1.71,2.07-2.36,4.08-1.96,6.15,.82,4.32,6.05,8.34,14.7,15l1.81,1.39c14.23,10.98,24.07,15.76,30.08,14.62l13.78-2.62,3.14-.6,71.67-13.65,71.67,13.65,3.14,.6,13.78,2.62c6.01,1.14,15.85-3.64,30.08-14.62l1.81-1.39c8.65-6.66,13.88-10.68,14.7-15,.39-2.07-.25-4.08-1.96-6.15-6.17-7.44-12.78-2.31-27.26,8.91Zm-138.27-2.22c-11.17-2.14-21.73-4.23-31.23-6.1l-2.05,6.02,.31-6.36c-1.78-.35-3.52-.69-5.22-1.02-.16-.03-.31-.06-.47-.09,.04,.18,.1,.43,.14,.73,.11,.63,.19,1.48,.22,2.33,.02,.85-.01,1.7-.08,2.34-.06,.64-.17,1.07-.17,1.07,0,0-.13-.42-.23-1.06-.11-.63-.19-1.48-.22-2.33-.02-.85,.01-1.7,.08-2.34,.03-.32,.07-.58,.11-.77-1.67-.33-3.3-.66-4.89-.97-.03,.19-.07,.46-.14,.8-.14,.62-.38,1.43-.66,2.22-.29,.79-.64,1.55-.94,2.11-.3,.56-.55,.91-.55,.91,0,0,.04-.43,.18-1.05,.14-.62,.37-1.43,.66-2.22,.29-.79,.64-1.55,.94-2.11,.15-.29,.29-.52,.4-.68-3.05-.61-5.92-1.18-8.6-1.71,.05,.18,.12,.48,.18,.85,.11,.63,.19,1.48,.22,2.33,.02,.85,0,1.7-.08,2.34-.06,.64-.17,1.07-.17,1.07,0,0-.13-.42-.23-1.06-.11-.63-.19-1.48-.22-2.33-.02-.85,.01-1.7,.08-2.34,.04-.39,.09-.7,.13-.89-2.05-.41-3.99-.79-5.8-1.15-.02,.17-.07,.5-.16,.92-.13,.62-.37,1.43-.66,2.22-.29,.79-.64,1.55-.94,2.11-.3,.56-.55,.91-.55,.91,0,0,.04-.43,.18-1.05,.14-.62,.37-1.43,.66-2.22,.29-.79,.64-1.55,.94-2.11,.2-.37,.37-.65,.47-.8-2.52-.5-4.79-.95-6.8-1.35-.62-.13-1.2-.24-1.77-.36,.04,.14,.13,.5,.21,.99,.11,.63,.19,1.48,.22,2.33,.02,.85-.01,1.7-.08,2.34-.06,.64-.17,1.07-.17,1.07,0,0-.13-.42-.23-1.06-.11-.63-.19-1.48-.22-2.33-.02-.85,.01-1.7,.08-2.34,.05-.51,.13-.88,.16-1.01-2.26-.46-4.11-.83-5.49-1.11l-2.16,6.39,.34-6.76c-.73-.15-1.11-.22-1.11-.22,0,0,3.74,.67,10.28,1.83,6.54,1.19,15.87,2.89,27.08,4.92,11.2,2.08,24.27,4.45,38.26,7.09,9.29,1.75,18.99,3.58,28.83,5.44l-3.16,.6c-8.82-1.7-17.52-3.37-25.87-4.98Zm-87.95-3.43c-.23,.21-.54,.53-.94,.88-.79,.72-1.87,1.63-2.99,2.5-1.12,.87-2.26,1.71-3.15,2.3-.44,.3-.82,.53-1.08,.7-.26,.17-.42,.25-.42,.25,0,0,.12-.13,.35-.35,.23-.21,.54-.53,.94-.88,.79-.72,1.87-1.63,2.99-2.51,1.12-.87,2.26-1.71,3.14-2.3,.44-.3,.82-.53,1.08-.7,.26-.17,.42-.26,.42-.26,0,0-.12,.13-.35,.35Zm1.63,13.34c-.29,.53-.55,.96-.73,1.26-.18,.3-.29,.47-.29,.47,0,0,.06-.19,.18-.52,.13-.33,.29-.8,.52-1.36,.45-1.12,1.09-2.59,1.77-4.03,.69-1.45,1.42-2.87,2-3.92,.29-.53,.55-.96,.72-1.26,.18-.3,.29-.47,.29-.47,0,0-.06,.19-.18,.52-.13,.33-.29,.8-.52,1.36-.45,1.12-1.09,2.58-1.77,4.03-.69,1.45-1.42,2.87-2,3.93Zm12.73-2.34c-.24,.22-.58,.56-1.01,.94-.84,.76-2,1.74-3.18,2.68-1.19,.94-2.4,1.83-3.34,2.48-.47,.33-.87,.58-1.14,.76-.28,.18-.44,.28-.44,.28,0,0,.13-.14,.37-.37,.24-.22,.58-.56,1-.94,.84-.76,2-1.74,3.18-2.68,1.19-.94,2.4-1.84,3.34-2.48,.47-.33,.87-.57,1.15-.76,.28-.18,.44-.28,.44-.28,0,0-.13,.14-.37,.37Zm6.41,5.14c-.12,.3-.26,.74-.47,1.25-.4,1.03-.99,2.39-1.62,3.72-.63,1.33-1.31,2.65-1.85,3.61-.27,.49-.51,.88-.68,1.16-.17,.28-.27,.43-.27,.43,0,0,.05-.18,.17-.48,.12-.3,.26-.74,.47-1.26,.4-1.03,.99-2.39,1.62-3.72,.64-1.33,1.31-2.65,1.85-3.61,.27-.49,.51-.88,.68-1.16,.17-.28,.27-.43,.27-.43,0,0-.06,.18-.17,.48Zm7.81,5.74c-.13,.25-.3,.62-.54,1.04-.46,.86-1.11,1.97-1.81,3.05-.7,1.08-1.44,2.14-2.02,2.92-.29,.39-.55,.7-.73,.92-.18,.22-.29,.34-.29,.34,0,0,.07-.15,.19-.4,.13-.25,.3-.62,.53-1.05,.46-.85,1.11-1.97,1.81-3.05,.7-1.08,1.44-2.14,2.02-2.92,.29-.39,.55-.7,.73-.92,.18-.22,.29-.34,.29-.34,0,0-.06,.15-.19,.4Zm36.36-1.75c-4.56,.85-9,1.67-13.32,2.48l.06,5.65-2.03-5.28c-.46,.08-.9,.17-1.35,.25l.06,5.66-2.03-5.29c-.52,.09-1.05,.19-1.56,.29-.8,.15-1.6,.31-2.43,.4-.83,.09-1.65,.08-2.47,.02-1.63-.13-3.19-.54-4.66-1.07-2.93-1.11-5.49-2.7-7.84-4.33-4.69-3.29-8.61-6.74-12.22-9.63-3.6-2.9-6.78-5.38-9.43-7.38-2.66-1.99-4.8-3.47-6.33-4.38-.76-.46-1.37-.78-1.78-.98-.41-.2-.63-.3-.63-.3,0,0,.22,.1,.63,.29,.42,.2,1.03,.5,1.8,.94,1.55,.87,3.75,2.29,6.44,4.24,2.69,1.95,5.91,4.37,9.58,7.21,1.82,1.43,3.75,2.95,5.79,4.56,2.05,1.59,4.19,3.27,6.54,4.86,2.34,1.58,4.88,3.12,7.72,4.15,1.42,.5,2.91,.87,4.45,.97,.77,.04,1.54,.04,2.32-.05,.76-.09,1.55-.25,2.36-.41,6.4-1.25,13.16-2.56,20.14-3.93,13.98-2.69,28.89-5.56,43.8-8.43,14.92-2.81,29.84-5.63,43.83-8.26,13.99-2.64,27.06-5.01,38.26-7.09,11.2-2.04,20.54-3.74,27.08-4.92,6.54-1.17,10.28-1.83,10.28-1.83,0,0-.38,.08-1.11,.22l.34,6.76-2.16-6.39c-1.38,.28-3.23,.65-5.49,1.11,.03,.13,.1,.5,.16,1.01,.07,.64,.1,1.49,.08,2.34-.03,.85-.11,1.7-.22,2.33-.1,.63-.23,1.06-.23,1.06,0,0-.1-.43-.17-1.07-.07-.64-.1-1.49-.08-2.34,.03-.85,.11-1.69,.22-2.33,.08-.5,.17-.86,.21-.99-.57,.12-1.15,.23-1.77,.36-2.01,.4-4.29,.85-6.8,1.35,.1,.15,.27,.42,.47,.8,.3,.56,.65,1.33,.94,2.11,.29,.79,.53,1.59,.66,2.22,.14,.62,.18,1.05,.18,1.05,0,0-.25-.35-.55-.91-.3-.56-.65-1.33-.94-2.11-.29-.79-.53-1.59-.66-2.22-.09-.42-.14-.75-.16-.92-1.81,.36-3.76,.75-5.8,1.15,.04,.18,.09,.5,.13,.89,.07,.64,.1,1.49,.08,2.34-.03,.85-.11,1.7-.22,2.33-.1,.63-.23,1.06-.23,1.06,0,0-.1-.43-.17-1.07-.07-.64-.1-1.49-.08-2.34,.03-.85,.11-1.7,.22-2.33,.06-.37,.13-.67,.18-.85-2.68,.53-5.56,1.11-8.6,1.71,.1,.16,.25,.39,.4,.68,.3,.56,.65,1.33,.94,2.11,.29,.79,.52,1.59,.66,2.22,.14,.62,.18,1.05,.18,1.05,0,0-.26-.35-.55-.91-.3-.56-.65-1.33-.94-2.11-.29-.79-.53-1.59-.66-2.22-.08-.33-.12-.61-.15-.8-1.58,.31-3.21,.64-4.88,.97,.03,.19,.08,.45,.11,.77,.07,.64,.1,1.49,.08,2.34-.03,.85-.11,1.7-.22,2.33-.1,.63-.23,1.06-.23,1.06,0,0-.11-.43-.17-1.07-.07-.64-.1-1.49-.08-2.34,.03-.85,.11-1.7,.22-2.33,.05-.3,.1-.55,.14-.73-.16,.03-.31,.06-.47,.09-1.7,.33-3.44,.67-5.22,1.02l.31,6.36-2.05-6.02c-9.5,1.87-20.06,3.96-31.23,6.1-13.98,2.69-28.89,5.56-43.8,8.43-14.92,2.81-29.84,5.63-43.83,8.26Zm152.1,9.69c-.17-.22-.44-.54-.73-.92-.59-.77-1.32-1.83-2.02-2.92-.7-1.09-1.35-2.2-1.81-3.05-.23-.43-.4-.79-.54-1.04-.13-.26-.19-.4-.19-.4,0,0,.11,.12,.29,.34,.17,.22,.44,.53,.73,.92,.59,.77,1.32,1.83,2.02,2.92,.69,1.09,1.35,2.2,1.81,3.05,.23,.43,.4,.8,.53,1.05,.13,.25,.19,.4,.19,.4,0,0-.11-.12-.29-.34Zm7.34-3.93c-.16-.28-.41-.67-.68-1.16-.54-.97-1.22-2.28-1.85-3.61-.63-1.33-1.22-2.69-1.62-3.72-.21-.51-.36-.95-.47-1.25-.11-.31-.16-.48-.16-.48,0,0,.1,.16,.27,.43,.16,.28,.41,.67,.68,1.16,.54,.97,1.22,2.28,1.85,3.61,.63,1.33,1.22,2.69,1.62,3.72,.21,.51,.36,.95,.47,1.26,.11,.31,.16,.48,.16,.48,0,0-.1-.16-.27-.43Zm-11.21-6.98c-2.35,1.62-4.91,3.22-7.84,4.33-1.47,.53-3.03,.94-4.66,1.07-.81,.06-1.64,.06-2.47-.02-.84-.09-1.64-.25-2.43-.4-.51-.1-1.04-.2-1.56-.29l-2.03,5.29,.06-5.66c-.45-.08-.89-.17-1.35-.25l-2.03,5.28,.06-5.65c-4.32-.8-8.77-1.63-13.32-2.48-11.53-2.17-23.7-4.47-35.98-6.78l3.23-.62c11.25,2.17,22.37,4.3,32.95,6.34,6.98,1.36,13.74,2.68,20.14,3.93,.81,.16,1.59,.33,2.36,.41,.77,.09,1.55,.09,2.31,.05,1.53-.11,3.03-.47,4.45-.97,2.84-1.03,5.38-2.57,7.72-4.15,2.34-1.59,4.49-3.27,6.54-4.86,2.04-1.61,3.97-3.13,5.79-4.56,3.66-2.83,6.89-5.26,9.58-7.21,2.69-1.95,4.89-3.37,6.44-4.24,.78-.44,1.39-.74,1.8-.94,.42-.19,.64-.29,.64-.29,0,0-.21,.1-.63,.3-.41,.21-1.01,.53-1.78,.98-1.53,.91-3.68,2.39-6.33,4.38-2.65,2-5.83,4.48-9.44,7.38-3.61,2.89-7.53,6.34-12.22,9.63Zm21.68-1.05c-.28-.18-.68-.44-1.15-.76-.94-.64-2.15-1.54-3.34-2.48-1.19-.94-2.34-1.91-3.18-2.68-.42-.38-.76-.71-1-.94-.24-.23-.37-.37-.37-.37,0,0,.17,.1,.44,.28,.28,.18,.68,.43,1.15,.76,.94,.64,2.15,1.54,3.34,2.48,1.19,.94,2.34,1.91,3.18,2.68,.42,.38,.76,.71,1,.94,.24,.23,.37,.37,.37,.37,0,0-.16-.1-.44-.28Zm4.78-3.25c-.17-.3-.44-.73-.72-1.26-.59-1.05-1.32-2.48-2-3.93-.68-1.45-1.33-2.91-1.77-4.03-.23-.56-.39-1.03-.52-1.36-.12-.33-.18-.52-.18-.52,0,0,.11,.17,.29,.47,.17,.31,.44,.74,.72,1.26,.58,1.05,1.32,2.48,2,3.92,.69,1.45,1.33,2.92,1.77,4.03,.23,.56,.39,1.03,.52,1.36,.12,.33,.18,.52,.18,.52,0,0-.11-.17-.29-.47Zm9.06-8.21c-.26-.17-.64-.4-1.08-.7-.88-.59-2.03-1.43-3.15-2.3-1.11-.87-2.2-1.79-2.99-2.5-.4-.35-.71-.67-.94-.88-.22-.22-.35-.35-.35-.35,0,0,.16,.09,.42,.26,.26,.17,.64,.4,1.08,.7,.88,.59,2.03,1.43,3.14,2.3,1.11,.88,2.2,1.79,2.99,2.51,.4,.35,.71,.67,.94,.88,.22,.22,.35,.35,.35,.35,0,0-.16-.09-.42-.25Z"/>
        <g>
            <path class="cls-1"
                  d="M187.36,51.5c1.3,.38,2.66,.68,4.07,.89,1.18,.27,2.52,.49,4.03,.65,1.5,.16,3.02,.24,4.56,.24,2.71,0,4.07-.92,4.07-2.76,0-.7-.41-1.42-1.24-2.15-.83-.73-1.87-1.54-3.14-2.44-1.27-.89-2.63-1.88-4.07-2.96-1.45-1.08-2.8-2.33-4.07-3.73-1.27-1.41-2.32-2.99-3.14-4.75-.83-1.76-1.24-3.78-1.24-6.05,0-2.54,.5-4.79,1.51-6.74,1-1.95,2.39-3.57,4.16-4.87s3.85-2.29,6.24-2.96c2.39-.68,4.94-1.01,7.66-1.01,1.42,0,2.83,.07,4.25,.2,1.42,.14,2.69,.26,3.81,.37,1.3,.16,2.57,.32,3.81,.49v15.18c-.47-.05-1-.11-1.59-.16-.47-.05-1-.11-1.59-.16-.59-.05-1.21-.08-1.86-.08-.35,0-.8,.01-1.33,.04-.53,.03-1.03,.1-1.5,.2-.47,.11-.89,.3-1.24,.57-.35,.27-.53,.65-.53,1.14,0,.43,.4,.97,1.2,1.62,.8,.65,1.77,1.41,2.92,2.27,1.15,.87,2.42,1.87,3.81,3,1.39,1.14,2.66,2.44,3.81,3.9,1.15,1.46,2.13,3.11,2.92,4.95,.8,1.84,1.2,3.9,1.2,6.17s-.41,4.62-1.24,6.7c-.83,2.08-2.11,3.9-3.85,5.44-1.74,1.54-3.97,2.76-6.68,3.65-2.72,.89-5.93,1.34-9.65,1.34-2.24,0-4.32-.1-6.24-.28-1.92-.19-3.62-.42-5.09-.69-1.71-.27-3.28-.59-4.69-.97v-16.24Zm7.44,9.74c.83,.16,1.71,.3,2.66,.41,.83,.11,1.7,.2,2.61,.28,.91,.08,1.84,.12,2.79,.12,1.65,0,3.26-.18,4.83-.53,1.56-.35,2.97-.93,4.21-1.75,1.24-.81,2.23-1.85,2.97-3.13,.74-1.27,1.11-2.83,1.11-4.67,0-1.57-.43-3.06-1.28-4.47-.86-1.41-1.95-2.76-3.28-4.06-1.33-1.3-2.74-2.54-4.25-3.73-1.5-1.19-2.92-2.4-4.25-3.61-1.33-1.22-2.42-2.44-3.28-3.65-.86-1.22-1.28-2.48-1.28-3.78,0-1.95,.68-3.45,2.04-4.51,1.36-1.06,3.54-1.58,6.55-1.58,.47,0,.96,.01,1.46,.04,.5,.03,.99,.07,1.46,.12,.47,.05,.94,.08,1.42,.08v-2.11c-.41,0-.86-.03-1.33-.08-.41-.05-.87-.09-1.37-.12-.5-.03-1.02-.04-1.55-.04-3.19,0-5.81,.66-7.88,1.99-2.07,1.33-3.1,3.4-3.1,6.21,0,1.52,.43,2.94,1.28,4.26,.86,1.33,1.95,2.63,3.28,3.9,1.33,1.27,2.74,2.5,4.25,3.69,1.5,1.19,2.92,2.4,4.25,3.61,1.33,1.22,2.42,2.48,3.28,3.78,.86,1.3,1.28,2.65,1.28,4.06,0,2.6-.96,4.57-2.88,5.93-1.92,1.35-4.56,2.03-7.92,2.03-2.01,0-3.84-.13-5.49-.41-.89-.11-1.74-.24-2.57-.41v2.11Z"/>
            <path class="cls-1"
                  d="M228.8,14.15h34.79v14.21h-15.94v6.01h15.67v13.48h-15.67v6.25h16.56v14.21h-35.41V14.15Zm28.86,47.66v-1.95h-17.71v-17.78h16.82v-1.95h-16.82V22.59h17.71v-1.95h-20.01V61.81h20.01Z"/>
            <path class="cls-1"
                  d="M269.52,14.15h20.36c3.78,0,7.27,.46,10.49,1.38,3.22,.92,6,2.27,8.37,4.06,2.36,1.79,4.21,3.99,5.53,6.62,1.33,2.63,1.99,5.64,1.99,9.05,0,2.71-.41,5.01-1.24,6.9-.83,1.9-1.74,3.46-2.74,4.71-1.18,1.41-2.51,2.6-3.98,3.57l11.07,17.86h-22.13l-8.85-13.72v13.72h-18.86V14.15Zm18.41,35.32c2.3,0,4.54-.22,6.73-.65l8.41,12.99h2.74l-8.85-13.64c3.19-1.03,5.72-2.61,7.61-4.75,1.89-2.14,2.83-4.91,2.83-8.32,0-2.38-.5-4.47-1.5-6.25-1-1.79-2.38-3.29-4.12-4.51-1.74-1.22-3.79-2.14-6.15-2.76-2.36-.62-4.93-.93-7.7-.93h-9.56V61.81h2.3v-12.34h7.26Zm-7.26-1.95V22.59h7.26c5.37,0,9.58,1.08,12.62,3.25,3.04,2.17,4.56,5.25,4.56,9.26s-1.52,7.08-4.56,9.22c-3.04,2.14-7.25,3.21-12.62,3.21h-7.26Zm7.7-6.74h.97c2.24,0,4.15-.46,5.71-1.38,1.56-.92,2.35-2.46,2.35-4.63s-.78-3.71-2.35-4.63c-1.56-.92-3.47-1.38-5.71-1.38h-.97v12.02Z"/>
            <path class="cls-1"
                  d="M316.26,14.15h20.01l6.82,18.92,6.82-18.92h12.93l6.82,18.92,6.82-18.92h20.01l-19.48,54.16h-14.7l-5.93-16.4-5.93,16.4h-14.7l-19.48-54.16Zm28.33,47.66l11.77-34.02,11.77,34.02h2.21l14.78-41.17h-2.39l-13.46,37.43-12.93-37.43-12.93,37.43-13.46-37.43h-2.39l14.79,41.17h2.21Z"/>
            <path class="cls-1" d="M397.8,14.15h20.01v54.16h-20.01V14.15Zm11.16,47.66V20.64h-2.3V61.81h2.3Z"/>
            <path class="cls-1"
                  d="M422.41,51.5c1.3,.38,2.66,.68,4.07,.89,1.18,.27,2.52,.49,4.03,.65,1.51,.16,3.02,.24,4.56,.24,2.71,0,4.07-.92,4.07-2.76,0-.7-.41-1.42-1.24-2.15-.83-.73-1.87-1.54-3.14-2.44-1.27-.89-2.63-1.88-4.07-2.96-1.45-1.08-2.8-2.33-4.07-3.73-1.27-1.41-2.32-2.99-3.14-4.75-.83-1.76-1.24-3.78-1.24-6.05,0-2.54,.5-4.79,1.5-6.74,1-1.95,2.39-3.57,4.16-4.87s3.85-2.29,6.24-2.96c2.39-.68,4.94-1.01,7.66-1.01,1.42,0,2.83,.07,4.25,.2,1.42,.14,2.69,.26,3.81,.37,1.3,.16,2.57,.32,3.81,.49v15.18c-.47-.05-1-.11-1.59-.16-.47-.05-1-.11-1.59-.16-.59-.05-1.21-.08-1.86-.08-.35,0-.8,.01-1.33,.04-.53,.03-1.03,.1-1.51,.2-.47,.11-.88,.3-1.24,.57-.35,.27-.53,.65-.53,1.14,0,.43,.4,.97,1.19,1.62,.8,.65,1.77,1.41,2.92,2.27,1.15,.87,2.42,1.87,3.81,3,1.39,1.14,2.66,2.44,3.81,3.9,1.15,1.46,2.12,3.11,2.92,4.95,.8,1.84,1.19,3.9,1.19,6.17s-.41,4.62-1.24,6.7c-.83,2.08-2.11,3.9-3.85,5.44-1.74,1.54-3.97,2.76-6.68,3.65-2.72,.89-5.93,1.34-9.65,1.34-2.24,0-4.32-.1-6.24-.28-1.92-.19-3.62-.42-5.09-.69-1.71-.27-3.28-.59-4.69-.97v-16.24Zm7.44,9.74c.83,.16,1.71,.3,2.66,.41,.83,.11,1.7,.2,2.61,.28,.91,.08,1.84,.12,2.79,.12,1.65,0,3.26-.18,4.82-.53,1.56-.35,2.97-.93,4.21-1.75s2.23-1.85,2.97-3.13c.74-1.27,1.11-2.83,1.11-4.67,0-1.57-.43-3.06-1.28-4.47-.86-1.41-1.95-2.76-3.28-4.06s-2.74-2.54-4.25-3.73c-1.5-1.19-2.92-2.4-4.25-3.61s-2.42-2.44-3.28-3.65c-.86-1.22-1.28-2.48-1.28-3.78,0-1.95,.68-3.45,2.04-4.51,1.36-1.06,3.54-1.58,6.55-1.58,.47,0,.96,.01,1.46,.04,.5,.03,.99,.07,1.46,.12,.47,.05,.94,.08,1.42,.08v-2.11c-.41,0-.86-.03-1.33-.08-.41-.05-.87-.09-1.37-.12-.5-.03-1.02-.04-1.55-.04-3.19,0-5.81,.66-7.88,1.99-2.07,1.33-3.1,3.4-3.1,6.21,0,1.52,.43,2.94,1.28,4.26,.86,1.33,1.95,2.63,3.28,3.9,1.33,1.27,2.74,2.5,4.25,3.69,1.51,1.19,2.92,2.4,4.25,3.61,1.33,1.22,2.42,2.48,3.28,3.78,.86,1.3,1.28,2.65,1.28,4.06,0,2.6-.96,4.57-2.88,5.93-1.92,1.35-4.56,2.03-7.92,2.03-2.01,0-3.84-.13-5.49-.41-.89-.11-1.74-.24-2.57-.41v2.11Z"/>
        </g>
        <g>
            <path class="cls-2"
                  d="M185.39,86.46h10.42l10.96,14.03v-14.03h12.44v36.42h-10.48l-10.9-13.98v13.98h-12.44v-36.42Zm7.09,32.05v-25.23l19.65,25.23h1.55v-27.69h-1.55v25.23l-19.65-25.23h-1.55v27.69h1.55Z"/>
            <path class="cls-2"
                  d="M235.16,86.46h9.53l15.06,36.42h-12.5l-1.31-3.28h-12.03l-1.31,3.28h-12.5l15.06-36.42Zm-6.19,32.05l1.13-2.73h19.65l1.13,2.73h1.67l-11.49-27.69h-2.26l-11.49,27.69h1.67Zm10.96-26.38l9.29,22.33h-18.58l9.29-22.33Zm2.68,19.44l-2.68-6.39-2.68,6.39h5.36Z"/>
            <path class="cls-2"
                  d="M272.55,86.46h13.22v26.87h10.96v9.56h-24.17v-36.42Zm20.84,32.05v-1.31h-13.34v-26.38h-1.55v27.69h14.89Z"/>
            <path class="cls-2"
                  d="M297.92,104.7c0-2.62,.55-5.1,1.64-7.43,1.09-2.33,2.58-4.36,4.47-6.09,1.88-1.73,4.1-3.09,6.64-4.1,2.54-1,5.24-1.5,8.1-1.5s5.56,.5,8.1,1.5c2.54,1,4.75,2.37,6.64,4.1,1.88,1.73,3.37,3.76,4.47,6.09,1.09,2.33,1.64,4.81,1.64,7.43s-.55,5.1-1.64,7.43c-1.09,2.33-2.58,4.36-4.47,6.09-1.89,1.73-4.1,3.09-6.64,4.1-2.54,1-5.24,1.5-8.1,1.5s-5.56-.5-8.1-1.5c-2.54-1-4.75-2.37-6.64-4.1-1.89-1.73-3.37-3.76-4.47-6.09-1.09-2.33-1.64-4.81-1.64-7.43Zm5.6,0c0,1.93,.4,3.74,1.19,5.43,.79,1.69,1.88,3.18,3.28,4.45,1.39,1.27,3.01,2.28,4.85,3,1.85,.73,3.82,1.09,5.92,1.09s4.08-.36,5.92-1.09c1.85-.73,3.46-1.73,4.85-3,1.39-1.27,2.48-2.76,3.28-4.45,.79-1.69,1.19-3.5,1.19-5.43s-.4-3.74-1.19-5.43c-.79-1.69-1.89-3.18-3.28-4.45-1.39-1.27-3.01-2.27-4.85-3-1.85-.73-3.82-1.09-5.92-1.09s-4.08,.36-5.92,1.09c-1.85,.73-3.46,1.73-4.85,3-1.39,1.27-2.48,2.76-3.28,4.45-.79,1.69-1.19,3.5-1.19,5.43Zm15.24,12.56c-1.91,0-3.68-.33-5.33-.98-1.65-.66-3.1-1.56-4.35-2.7-1.25-1.15-2.23-2.48-2.95-3.99-.71-1.51-1.07-3.14-1.07-4.89s.36-3.38,1.07-4.89c.71-1.51,1.7-2.84,2.95-3.99,1.25-1.15,2.7-2.05,4.35-2.7,1.65-.66,3.42-.98,5.33-.98s3.68,.33,5.33,.98c1.65,.66,3.1,1.56,4.35,2.7,1.25,1.15,2.23,2.48,2.95,3.99,.71,1.51,1.07,3.14,1.07,4.89s-.36,3.38-1.07,4.89c-.71,1.51-1.7,2.84-2.95,3.99-1.25,1.15-2.7,2.05-4.35,2.7-1.65,.66-3.42,.98-5.33,.98Zm-8.34-12.56c0,1.06,.22,2.05,.66,2.98,.44,.93,1.03,1.74,1.79,2.43,.75,.69,1.64,1.24,2.65,1.64,1.01,.4,2.09,.6,3.25,.6s2.23-.2,3.25-.6c1.01-.4,1.89-.95,2.65-1.64,.75-.69,1.35-1.5,1.79-2.43,.44-.93,.66-1.92,.66-2.98s-.22-2.05-.66-2.98c-.44-.93-1.03-1.74-1.79-2.43-.75-.69-1.64-1.24-2.65-1.64-1.01-.4-2.09-.6-3.25-.6s-2.23,.2-3.25,.6c-1.01,.4-1.9,.95-2.65,1.64-.75,.69-1.35,1.5-1.79,2.43-.44,.93-.66,1.92-.66,2.98Z"/>
            <path class="cls-2"
                  d="M342.87,122.89v-36.42h11.02c3.73,0,7.06,.38,9.97,1.15s5.38,1.91,7.38,3.44c2,1.53,3.53,3.43,4.58,5.71,1.05,2.28,1.58,4.91,1.58,7.89s-.53,5.62-1.58,7.89c-1.05,2.28-2.58,4.18-4.58,5.71-2,1.53-4.47,2.69-7.38,3.47-2.92,.78-6.24,1.17-9.97,1.17h-11.02Zm5.95-4.37h5.06c5.79,0,10.17-1.21,13.13-3.63,2.96-2.42,4.44-5.83,4.44-10.24s-1.48-7.81-4.44-10.21c-2.96-2.4-7.33-3.6-13.13-3.6h-5.06v27.69Zm1.55-1.31v-25.06h3.51c5.04,0,8.96,1.05,11.76,3.14,2.8,2.09,4.2,5.22,4.2,9.37s-1.4,7.28-4.2,9.39c-2.8,2.11-6.72,3.17-11.76,3.17h-3.51Zm5.18-4.7c2.98,0,5.28-.65,6.91-1.94,1.63-1.29,2.44-3.27,2.44-5.92s-.81-4.62-2.44-5.9c-1.63-1.27-3.93-1.91-6.91-1.91v15.67Z"/>
            <path class="cls-2"
                  d="M391.22,96.02h-10.96l4.05-9.56h25.42l-13.81,26.87h13.04l-3.99,9.56h-27.57l13.81-26.87Zm10.66,22.5l.6-1.31h-14.47l13.58-26.38h-14.17l-.54,1.31h12.26l-13.58,26.38h16.31Z"/>
            <path class="cls-2" d="M411.52,86.46h13.46v36.42h-13.46v-36.42Zm7.5,32.05v-27.69h-1.55v27.69h1.55Z"/>
            <path class="cls-2"
                  d="M429.14,86.46h23.4v9.56h-10.72v4.04h10.54v9.06h-10.54v4.2h11.13v9.56h-23.82v-36.42Zm19.41,32.05v-1.31h-11.91v-11.96h11.31v-1.31h-11.31v-11.8h11.91v-1.31h-13.46v27.69h13.46Z"/>
        </g>
    </g>
</svg>